<?xml version="1.0" encoding="UTF-8"?><svg xmlns="http://www.w3.org/2000/svg" xmlns:xlink="http://www.w3.org/1999/xlink" width="48.75" zoomAndPan="magnify" viewBox="0 0 48.75 48.749998" height="48.749998" preserveAspectRatio="xMidYMid meet" version="1.0"><defs><clipPath id="clip-0"><path d="M 0 0 L 48.5 0 L 48.5 48.5 L 0 48.5 Z M 0 0 " clip-rule="nonzero"/></clipPath><clipPath id="clip-1"><path d="M 0 0 L 48.5 0 L 48.5 48.5 L 0 48.5 Z M 0 0 " clip-rule="nonzero"/></clipPath></defs><g clip-path="url(#clip-0)"><path fill="rgb(100%, 100%, 100%)" d="M 0 0 L 48.75 0 L 48.75 56.25 L 0 56.25 Z M 0 0 " fill-opacity="1" fill-rule="nonzero"/><path fill="rgb(100%, 100%, 100%)" d="M 0 0 L 48.75 0 L 48.75 48.75 L 0 48.75 Z M 0 0 " fill-opacity="1" fill-rule="nonzero"/></g><path fill="rgb(82.348633%, 5.488586%, 5.879211%)" d="M 40.554688 21.980469 L 29.230469 33.339844 L 31.65625 35.773438 L 42.980469 24.414062 L 40.554688 21.980469 " fill-opacity="1" fill-rule="nonzero"/><path fill="rgb(88.62915%, 14.509583%, 14.898682%)" d="M 30.847656 34.960938 L 42.171875 23.605469 L 42.980469 24.414062 L 31.65625 35.773438 L 30.847656 34.960938 " fill-opacity="1" fill-rule="nonzero"/><path fill="rgb(97.648621%, 80.778503%, 58.428955%)" d="M 40.554688 21.980469 L 42.980469 19.546875 L 47.835938 19.546875 L 47.835938 25.226562 L 43.792969 25.226562 L 40.554688 21.980469 " fill-opacity="1" fill-rule="nonzero"/><path fill="rgb(96.859741%, 73.728943%, 58.039856%)" d="M 43.792969 25.226562 C 43.34375 25.226562 42.980469 24.863281 42.980469 24.414062 L 42.980469 22.792969 C 42.980469 22.34375 43.34375 21.980469 43.792969 21.980469 L 44.601562 21.980469 C 45.046875 21.980469 45.410156 22.34375 45.410156 22.792969 C 45.410156 23.242188 45.046875 23.605469 44.601562 23.605469 L 44.601562 24.414062 C 44.601562 24.863281 44.238281 25.226562 43.792969 25.226562 " fill-opacity="1" fill-rule="nonzero"/><path fill="rgb(55.688477%, 29.40979%, 9.799194%)" d="M 20.328125 45.503906 L 22.757812 47.9375 L 26.800781 47.9375 L 26.800781 47.128906 L 25.992188 46.316406 L 27.609375 44.695312 L 24.375 41.449219 L 20.328125 45.503906 " fill-opacity="1" fill-rule="nonzero"/><path fill="rgb(0%, 34.509277%, 49.409485%)" d="M 24.136719 40.066406 L 26.800781 37.394531 L 26.800781 35.773438 L 35.699219 35.773438 L 35.699219 38.203125 L 28.992188 44.933594 C 28.675781 45.25 28.164062 45.25 27.847656 44.933594 L 24.136719 41.210938 C 23.820312 40.894531 23.820312 40.382812 24.136719 40.066406 " fill-opacity="1" fill-rule="nonzero"/><path fill="rgb(97.648621%, 53.329468%, 0%)" d="M 35.699219 35.773438 L 25.992188 35.773438 L 25.992188 31.714844 C 25.992188 30.371094 27.078125 29.28125 28.421875 29.28125 L 33.273438 29.28125 C 34.613281 29.28125 35.699219 30.371094 35.699219 31.714844 L 35.699219 35.773438 " fill-opacity="1" fill-rule="nonzero"/><path fill="rgb(97.648621%, 53.329468%, 0%)" d="M 34.082031 30.90625 L 27.609375 30.90625 L 27.609375 27.660156 L 34.082031 27.660156 L 34.082031 30.90625 " fill-opacity="1" fill-rule="nonzero"/><path fill="rgb(98.039246%, 78.42865%, 69.799805%)" d="M 38.210938 18.324219 C 40.070312 22.042969 38.535156 26.585938 34.78125 28.46875 C 31.03125 30.351562 26.484375 28.859375 24.628906 25.140625 C 22.769531 21.421875 24.304688 16.878906 28.054688 14.996094 C 31.808594 13.113281 36.355469 14.601562 38.210938 18.324219 " fill-opacity="1" fill-rule="nonzero"/><path fill="rgb(94.119263%, 35.289001%, 16.079712%)" d="M 33.273438 24.414062 C 33.273438 25.3125 34 26.039062 34.890625 26.039062 C 35.785156 26.039062 36.511719 25.3125 36.511719 24.414062 C 36.511719 23.519531 35.785156 22.792969 34.890625 22.792969 C 34 22.792969 33.273438 23.519531 33.273438 24.414062 " fill-opacity="1" fill-rule="nonzero"/><path fill="rgb(40.779114%, 23.139954%, 6.669617%)" d="M 36.398438 15.992188 L 34.304688 17.042969 L 32.722656 21.726562 L 31.160156 21.214844 C 30.730469 21.074219 30.28125 21.117188 29.902344 21.308594 C 29.523438 21.5 29.21875 21.832031 29.070312 22.261719 C 28.78125 23.125 29.242188 24.054688 30.105469 24.335938 L 31.667969 24.847656 L 30.199219 29.191406 C 27.871094 28.832031 25.753906 27.398438 24.628906 25.140625 C 22.769531 21.421875 24.304688 16.878906 28.054688 14.996094 C 30.882812 13.578125 34.160156 14.074219 36.398438 15.992188 " fill-opacity="1" fill-rule="nonzero"/><path fill="rgb(75.689697%, 39.219666%, 12.159729%)" d="M 36.847656 25.882812 L 34.992188 25.265625 L 32.609375 20.488281 C 32.40625 20.085938 31.921875 19.925781 31.523438 20.125 C 31.121094 20.324219 30.960938 20.8125 31.160156 21.214844 L 32.820312 24.539062 L 27.078125 22.621094 C 26.652344 22.480469 26.195312 22.710938 26.054688 23.136719 C 25.910156 23.5625 26.140625 24.019531 26.566406 24.164062 L 36.335938 27.421875 C 36.421875 27.449219 36.507812 27.464844 36.589844 27.464844 C 36.929688 27.464844 37.246094 27.25 37.359375 26.910156 C 37.5 26.484375 37.269531 26.023438 36.847656 25.882812 " fill-opacity="1" fill-rule="nonzero"/><path fill="rgb(40.779114%, 23.139954%, 6.669617%)" d="M 36.308594 24.882812 C 36.222656 24.882812 36.132812 24.871094 36.046875 24.839844 C 35.625 24.695312 35.398438 24.238281 35.542969 23.8125 C 35.753906 23.1875 36.3125 22.769531 36.933594 22.703125 C 37.355469 22.246094 38.023438 22.046875 38.648438 22.253906 C 39.074219 22.390625 39.304688 22.851562 39.167969 23.277344 C 39.027344 23.703125 38.570312 23.933594 38.148438 23.792969 C 38.136719 23.792969 38.121094 23.796875 38.117188 23.808594 C 37.976562 24.230469 37.523438 24.457031 37.101562 24.320312 C 37.089844 24.316406 37.078125 24.324219 37.074219 24.332031 C 36.960938 24.671875 36.644531 24.882812 36.308594 24.882812 " fill-opacity="1" fill-rule="nonzero"/><path fill="rgb(17.248535%, 24.708557%, 31.759644%)" d="M 37.3125 20.847656 C 37.511719 21.25 37.347656 21.734375 36.949219 21.9375 C 36.550781 22.136719 36.066406 21.972656 35.863281 21.574219 C 35.664062 21.171875 35.828125 20.6875 36.226562 20.484375 C 36.625 20.285156 37.113281 20.445312 37.3125 20.847656 " fill-opacity="1" fill-rule="nonzero"/><path fill="rgb(100%, 100%, 0%)" d="M 21.394531 23.394531 L 21.03125 23.578125 C 20.433594 23.878906 20.191406 24.609375 20.488281 25.210938 C 20.789062 25.8125 21.519531 26.054688 22.117188 25.753906 L 39.480469 17.039062 C 40.078125 16.738281 40.320312 16.003906 40.023438 15.40625 C 39.722656 14.804688 38.992188 14.5625 38.394531 14.863281 L 38.03125 15.042969 C 37.160156 13.292969 35.699219 12.136719 34.066406 11.332031 L 32.773438 8.742188 C 32.773438 8.742188 29.90625 8.234375 25.726562 10.335938 C 21.027344 12.695312 18.804688 18.214844 21.394531 23.394531 " fill-opacity="1" fill-rule="nonzero"/><path fill="rgb(100%, 92.549133%, 0%)" d="M 40.023438 15.40625 C 39.722656 14.804688 38.992188 14.5625 38.394531 14.863281 L 38.03125 15.042969 C 37.496094 13.972656 36.742188 13.121094 35.863281 12.441406 C 33.71875 14.109375 31.296875 15.433594 28.648438 15.957031 C 26.140625 16.449219 23.40625 16.136719 21.203125 14.894531 C 20.003906 17.414062 19.925781 20.460938 21.394531 23.394531 L 21.03125 23.578125 C 20.433594 23.878906 20.191406 24.609375 20.488281 25.210938 C 20.539062 25.304688 20.597656 25.390625 20.664062 25.464844 L 40.125 15.707031 C 40.105469 15.605469 40.070312 15.503906 40.023438 15.40625 " fill-opacity="1" fill-rule="nonzero"/><path fill="rgb(100%, 100%, 0%)" d="M 28.648438 15.957031 C 31.296875 15.433594 33.71875 14.109375 35.863281 12.441406 C 35.304688 12.007812 34.699219 11.644531 34.066406 11.332031 L 32.773438 8.742188 C 32.773438 8.742188 29.90625 8.234375 25.726562 10.335938 C 23.691406 11.355469 22.121094 12.972656 21.203125 14.894531 C 23.40625 16.136719 26.140625 16.449219 28.648438 15.957031 " fill-opacity="1" fill-rule="nonzero"/><path fill="rgb(98.81897%, 76.078796%, 0%)" d="M 20.664062 25.464844 C 21.019531 25.871094 21.613281 26.007812 22.117188 25.753906 L 39.480469 17.039062 C 39.980469 16.785156 40.230469 16.234375 40.125 15.707031 L 20.664062 25.464844 " fill-opacity="1" fill-rule="nonzero"/><path fill="rgb(100%, 100%, 100%)" d="M 24.234375 17.171875 C 24.265625 16.691406 24.398438 16.222656 24.621094 15.769531 C 24.816406 15.371094 24.652344 14.882812 24.253906 14.683594 C 23.851562 14.484375 23.367188 14.648438 23.167969 15.050781 C 22.851562 15.691406 22.667969 16.367188 22.621094 17.058594 C 22.589844 17.503906 22.925781 17.894531 23.371094 17.925781 C 23.476562 17.933594 23.582031 17.917969 23.679688 17.886719 C 23.980469 17.789062 24.210938 17.511719 24.234375 17.171875 Z M 25.921875 14.226562 C 25.574219 14.34375 25.175781 14.203125 24.980469 13.875 C 24.75 13.492188 24.871094 12.992188 25.253906 12.761719 C 25.378906 12.6875 25.507812 12.617188 25.632812 12.554688 C 26.035156 12.355469 26.519531 12.519531 26.71875 12.921875 C 26.917969 13.320312 26.75 13.808594 26.351562 14.007812 C 26.261719 14.050781 26.175781 14.097656 26.089844 14.152344 C 26.035156 14.183594 25.980469 14.207031 25.921875 14.226562 " fill-opacity="1" fill-rule="nonzero"/><path fill="rgb(98.81897%, 76.078796%, 0%)" d="M 34.066406 12.140625 C 33.945312 12.140625 33.824219 12.117188 33.710938 12.058594 C 32.484375 11.453125 31.113281 11.175781 29.75 11.253906 C 29.300781 11.277344 28.921875 10.9375 28.894531 10.488281 C 28.871094 10.042969 29.210938 9.660156 29.65625 9.632812 C 31.300781 9.539062 32.949219 9.875 34.425781 10.601562 C 34.824219 10.800781 34.988281 11.285156 34.792969 11.6875 C 34.652344 11.976562 34.363281 12.140625 34.066406 12.140625 " fill-opacity="1" fill-rule="nonzero"/><path fill="rgb(98.81897%, 76.078796%, 0%)" d="M 21.394531 24.207031 C 21.097656 24.207031 20.8125 24.042969 20.671875 23.757812 C 20.46875 23.359375 20.632812 22.871094 21.03125 22.671875 L 23.203125 21.582031 C 23.601562 21.378906 24.085938 21.542969 24.289062 21.941406 C 24.488281 22.34375 24.324219 22.832031 23.925781 23.03125 L 21.753906 24.121094 C 21.640625 24.179688 21.515625 24.207031 21.394531 24.207031 " fill-opacity="1" fill-rule="nonzero"/><path fill="rgb(98.81897%, 76.078796%, 0%)" d="M 35.863281 16.945312 C 35.566406 16.945312 35.28125 16.78125 35.136719 16.496094 C 34.9375 16.09375 35.101562 15.609375 35.5 15.40625 L 37.671875 14.316406 C 38.070312 14.117188 38.554688 14.28125 38.753906 14.679688 C 38.957031 15.082031 38.792969 15.566406 38.394531 15.769531 L 36.222656 16.859375 C 36.109375 16.917969 35.984375 16.945312 35.863281 16.945312 " fill-opacity="1" fill-rule="nonzero"/><path fill="rgb(100%, 100%, 0%)" d="M 35.699219 34.148438 L 25.992188 34.148438 L 25.992188 31.714844 L 35.699219 31.714844 L 35.699219 34.148438 " fill-opacity="1" fill-rule="nonzero"/><path fill="rgb(100%, 100%, 100%)" d="M 35.699219 33.339844 L 25.992188 33.339844 L 25.992188 32.527344 L 35.699219 32.527344 L 35.699219 33.339844 " fill-opacity="1" fill-rule="nonzero"/><path fill="rgb(0%, 48.239136%, 69.40918%)" d="M 35.699219 35.773438 L 38.128906 42.261719 C 38.128906 42.707031 37.765625 43.070312 37.320312 43.070312 L 32.464844 43.070312 C 32.019531 43.070312 31.65625 42.707031 31.65625 42.261719 L 28.421875 39.828125 C 27.078125 39.828125 25.992188 38.738281 25.992188 37.394531 L 25.992188 35.773438 L 35.699219 35.773438 " fill-opacity="1" fill-rule="nonzero"/><path fill="rgb(75.689697%, 39.219666%, 12.159729%)" d="M 32.464844 43.070312 L 32.464844 47.9375 L 38.9375 47.9375 L 38.9375 47.128906 C 38.9375 46.230469 38.210938 45.503906 37.320312 45.503906 L 37.320312 43.070312 L 32.464844 43.070312 " fill-opacity="1" fill-rule="nonzero"/><path fill="rgb(88.62915%, 14.509583%, 14.898682%)" d="M 38.9375 34.148438 L 32.464844 34.148438 L 32.464844 30.90625 C 32.464844 30.007812 31.742188 29.28125 30.847656 29.28125 C 29.953125 29.28125 29.230469 30.007812 29.230469 30.90625 L 29.230469 34.960938 C 29.230469 36.304688 30.316406 37.394531 31.65625 37.394531 L 38.9375 37.394531 L 38.9375 34.148438 " fill-opacity="1" fill-rule="nonzero"/><path fill="rgb(98.429871%, 88.62915%, 73.728943%)" d="M 40.554688 37.394531 L 38.9375 37.394531 L 38.9375 34.148438 L 42.171875 34.148438 L 42.171875 35.773438 C 42.171875 36.667969 41.449219 37.394531 40.554688 37.394531 " fill-opacity="1" fill-rule="nonzero"/><path fill="rgb(68.238831%, 87.059021%, 97.24884%)" d="M 46.21875 39.828125 L 9.003906 2.515625 L 10.621094 0.890625 L 47.835938 38.203125 L 46.21875 39.828125 " fill-opacity="1" fill-rule="nonzero"/><path fill="rgb(73.728943%, 3.138733%, 6.669617%)" d="M 9.003906 2.515625 L 2.53125 9.003906 L 13.050781 19.546875 L 19.519531 13.058594 L 9.003906 2.515625 " fill-opacity="1" fill-rule="nonzero"/><path fill="rgb(82.348633%, 5.488586%, 5.879211%)" d="M 9.003906 9.003906 L 2.53125 15.492188 L 13.050781 26.039062 L 19.519531 19.546875 L 9.003906 9.003906 " fill-opacity="1" fill-rule="nonzero"/><path fill="rgb(88.62915%, 14.509583%, 14.898682%)" d="M 9.003906 15.492188 L 0.914062 23.605469 L 11.429688 34.148438 L 19.519531 26.039062 L 9.003906 15.492188 " fill-opacity="1" fill-rule="nonzero"/><path fill="rgb(59.999084%, 2.749634%, 8.239746%)" d="M 2.53125 9.003906 L 9.003906 9.003906 L 5.769531 12.25 Z M 2.53125 9.003906 " fill-opacity="1" fill-rule="nonzero"/><path fill="rgb(73.728943%, 3.138733%, 6.669617%)" d="M 2.53125 15.492188 L 9.003906 15.492188 L 5.769531 18.738281 Z M 2.53125 15.492188 " fill-opacity="1" fill-rule="nonzero"/><path fill="rgb(50.588989%, 79.219055%, 91.758728%)" d="M 9.8125 1.703125 L 47.027344 39.015625 L 46.21875 39.828125 L 9.003906 2.515625 L 9.8125 1.703125 " fill-opacity="1" fill-rule="nonzero"/><path fill="rgb(82.348633%, 5.488586%, 5.879211%)" d="M 30.847656 29.28125 L 30.847656 34.960938 C 30.847656 35.410156 31.210938 35.773438 31.65625 35.773438 L 38.9375 35.773438 L 38.9375 37.394531 L 31.65625 37.394531 C 30.316406 37.394531 29.230469 36.304688 29.230469 34.960938 L 29.230469 30.90625 C 29.230469 30.007812 29.953125 29.28125 30.847656 29.28125 " fill-opacity="1" fill-rule="nonzero"/><g clip-path="url(#clip-1)"><path fill="rgb(0%, 0%, 0%)" d="M 46.691406 38.203125 L 42.980469 34.484375 L 42.980469 35.4375 L 46.21875 38.679688 Z M 41.363281 35.773438 C 41.363281 35.773438 41.363281 34.960938 41.363281 34.960938 L 39.746094 34.960938 L 39.746094 36.582031 L 40.554688 36.582031 C 41 36.582031 41.363281 36.21875 41.363281 35.773438 Z M 35.746094 38.203125 L 29.230469 38.203125 C 28.78125 38.203125 28.421875 37.84375 28.421875 37.394531 L 28.421875 36.582031 L 26.800781 36.582031 C 26.8125 36.914062 26.761719 37.554688 26.871094 37.863281 C 27.066406 38.535156 27.722656 39.027344 28.421875 39.015625 C 28.59375 39.015625 28.765625 39.074219 28.90625 39.179688 L 32.140625 41.613281 C 32.34375 41.761719 32.464844 42.007812 32.464844 42.261719 L 37.265625 42.261719 Z M 38.128906 47.128906 C 38.128906 46.679688 37.765625 46.316406 37.320312 46.316406 C 36.871094 46.316406 36.511719 45.953125 36.511719 45.503906 L 36.511719 43.882812 L 33.273438 43.882812 L 33.273438 47.128906 Z M 30.425781 42.347656 L 28.132812 40.625 C 27.273438 40.554688 26.457031 40.121094 25.910156 39.4375 L 24.710938 40.636719 C 24.964844 40.894531 28.164062 44.101562 28.417969 44.359375 Z M 25.65625 47.128906 L 25.421875 46.890625 C 25.105469 46.574219 25.105469 46.058594 25.421875 45.742188 L 26.46875 44.695312 L 24.375 42.597656 L 21.472656 45.503906 L 23.09375 47.128906 Z M 26.832031 34.960938 L 28.421875 34.960938 L 28.421875 30.09375 C 27.542969 30.113281 26.832031 30.832031 26.832031 31.714844 Z M 29.691406 28.253906 L 30.621094 25.503906 L 26.914062 24.269531 L 25.488281 24.984375 C 26.375 26.605469 27.902344 27.789062 29.691406 28.253906 Z M 27.46875 22.175781 L 21.5625 16.25 C 20.917969 18.195312 21.003906 20.285156 21.8125 22.292969 L 23.234375 21.582031 C 24.203125 21.128906 24.898438 22.523438 23.957031 23.03125 C 23.703125 23.160156 21.613281 24.207031 21.425781 24.300781 C 21.210938 24.429688 21.148438 24.617188 21.242188 24.84375 C 21.371094 25.074219 21.59375 25.117188 21.789062 25.027344 Z M 20.378906 23.054688 C 20.035156 22.234375 19.796875 21.398438 19.664062 20.554688 L 17.429688 22.792969 L 19.609375 24.976562 C 19.488281 24.265625 19.800781 23.480469 20.378906 23.054688 Z M 18.375 26.039062 C 15.613281 23.265625 11.777344 19.417969 9.003906 16.640625 C 7.40625 18.242188 3.691406 21.96875 2.058594 23.605469 L 11.429688 33.003906 Z M 4.484375 16.304688 L 5.769531 17.589844 L 7.050781 16.304688 Z M 4.484375 9.816406 L 5.769531 11.101562 L 7.050781 9.816406 Z M 4.484375 8.191406 L 9.003906 8.191406 C 9.085938 8.195312 9.167969 8.207031 9.246094 8.230469 C 9.371094 8.269531 9.484375 8.339844 9.574219 8.429688 L 16.285156 15.15625 L 18.375 13.058594 L 9.003906 3.660156 Z M 16.285156 21.644531 L 18.375 19.546875 C 16.621094 17.789062 10.851562 12.003906 9.003906 10.152344 C 7.90625 11.25 5.5625 13.601562 4.484375 14.683594 C 4.695312 14.722656 9.3125 14.585938 9.359375 14.765625 C 11.136719 16.371094 14.585938 20 16.285156 21.644531 Z M 20.304688 14.992188 L 19.519531 14.207031 L 17.429688 16.304688 L 19.539062 18.417969 C 19.59375 17.246094 19.847656 16.089844 20.304688 14.992188 Z M 10.148438 2.515625 C 19.675781 12.066406 31.398438 23.820312 40.890625 33.339844 L 41.839844 33.339844 L 10.621094 2.039062 Z M 23.671875 12.832031 L 31.148438 20.328125 C 33.191406 19.300781 37.101562 17.339844 39.148438 16.3125 C 39.539062 16.113281 39.371094 15.53125 38.964844 15.542969 C 38.835938 15.53125 38.542969 15.71875 38.425781 15.769531 L 36.253906 16.859375 C 36.140625 16.917969 36.015625 16.945312 35.894531 16.945312 C 35.054688 16.945312 34.769531 15.792969 35.53125 15.40625 L 36.929688 14.703125 C 35.539062 12.589844 32.457031 11.042969 29.78125 11.253906 C 29.074219 11.308594 28.652344 10.414062 29.132812 9.902344 C 27.4375 10.339844 25.003906 11.398438 23.671875 12.832031 Z M 30.859375 9.566406 C 30.730469 9.582031 30.59375 9.601562 30.449219 9.621094 C 31.132812 9.636719 31.8125 9.726562 32.472656 9.886719 L 32.28125 9.507812 C 31.972656 9.492188 31.488281 9.492188 30.859375 9.566406 Z M 37.617188 18.894531 L 33.941406 20.742188 C 33.914062 20.8125 33.492188 22.113281 33.457031 22.125 L 33.972656 23.15625 L 36.71875 25.914062 C 37.113281 25.421875 37.4375 24.878906 37.683594 24.300781 C 37.511719 24.371094 37.320312 24.378906 37.132812 24.320312 C 37.125 24.316406 37.109375 24.324219 37.105469 24.332031 C 36.734375 25.339844 35.257812 24.828125 35.574219 23.8125 C 35.785156 23.1875 36.34375 22.769531 36.964844 22.703125 C 37.277344 22.363281 37.730469 22.164062 38.203125 22.171875 C 38.289062 21.050781 38.089844 19.929688 37.617188 18.894531 Z M 41.714844 21.964844 L 42.980469 23.238281 L 42.980469 22.792969 C 42.980469 22.34375 43.34375 21.980469 43.792969 21.980469 L 44.601562 21.980469 C 45.667969 22.015625 45.667969 23.570312 44.601562 23.605469 L 44.601562 24.414062 L 47.027344 24.414062 L 47.027344 20.359375 L 43.316406 20.359375 Z M 41.855469 24.429688 L 40.570312 23.144531 L 39.410156 24.308594 C 39.074219 25.316406 38.550781 26.253906 37.871094 27.066406 L 38.550781 27.746094 Z M 36.542969 31.714844 L 36.542969 33.339844 L 38.601562 33.339844 L 36.503906 31.238281 C 36.527344 31.394531 36.542969 31.554688 36.542969 31.714844 Z M 34.921875 33.339844 L 34.921875 31.714844 C 34.925781 30.808594 34.175781 30.074219 33.273438 30.09375 L 33.273438 33.339844 Z M 31.941406 26.660156 L 31.328125 28.46875 C 32.042969 28.472656 32.753906 28.371094 33.433594 28.15625 Z M 38.128906 36.582031 L 38.128906 34.960938 L 32.464844 34.960938 C 32.019531 34.960938 31.65625 34.597656 31.65625 34.148438 L 31.65625 30.09375 L 30.039062 30.09375 L 30.039062 36.582031 Z M 48.410156 38.777344 L 46.789062 40.402344 C 46.632812 40.558594 46.425781 40.636719 46.21875 40.636719 C 46.011719 40.636719 45.804688 40.558594 45.644531 40.402344 L 42.492188 37.238281 C 42.046875 37.824219 41.34375 38.203125 40.554688 38.203125 C 39.789062 38.203125 38.238281 38.203125 37.476562 38.203125 L 38.886719 41.976562 C 39.082031 42.632812 38.671875 43.351562 38.128906 43.664062 L 38.128906 44.832031 C 39.070312 45.167969 39.746094 46.070312 39.746094 47.128906 L 39.746094 47.9375 C 39.746094 48.386719 39.382812 48.75 38.9375 48.75 L 32.464844 48.75 C 32.019531 48.75 31.65625 48.386719 31.65625 47.9375 L 31.65625 43.664062 C 31.601562 43.632812 31.550781 43.597656 31.5 43.5625 L 29.5625 45.503906 C 29.054688 46.015625 28.28125 46.121094 27.660156 45.789062 L 27.136719 46.316406 L 27.375 46.554688 C 27.527344 46.707031 27.609375 46.914062 27.609375 47.128906 L 27.609375 47.9375 C 27.609375 48.386719 27.25 48.75 26.800781 48.75 L 22.757812 48.75 C 22.542969 48.75 22.335938 48.664062 22.183594 48.511719 L 19.757812 46.078125 C 19.441406 45.761719 19.441406 45.25 19.757812 44.933594 L 23.28125 41.398438 C 22.949219 40.789062 23.066406 39.976562 23.566406 39.492188 L 25.214844 37.839844 C 25.15625 37.539062 25.191406 36.097656 25.183594 35.773438 C 25.183594 35.695312 25.195312 35.621094 25.214844 35.550781 L 25.214844 31.714844 C 25.214844 30.460938 25.929688 29.371094 26.972656 28.832031 C 25.75 28.070312 24.734375 27 24.042969 25.710938 L 22.511719 26.476562 C 21.8125 26.839844 20.894531 26.730469 20.308594 26.222656 C 20.277344 26.363281 20.203125 26.5 20.09375 26.613281 L 12.003906 34.722656 C 11.84375 34.882812 11.636719 34.960938 11.429688 34.960938 C 11.222656 34.960938 11.015625 34.882812 10.859375 34.722656 L 0.339844 24.179688 C 0.0273438 23.859375 0.0273438 23.347656 0.339844 23.03125 L 4.625 18.738281 L 1.960938 16.066406 C 1.757812 15.867188 1.675781 15.5625 1.75 15.289062 C 1.785156 15.148438 1.859375 15.023438 1.960938 14.917969 L 4.625 12.25 L 1.960938 9.578125 C 1.667969 9.289062 1.644531 8.789062 1.914062 8.480469 C 3.132812 7.246094 8.949219 1.425781 10.050781 0.320312 C 10.367188 0 10.878906 0 11.195312 0.320312 L 22.527344 11.683594 C 25.640625 8.363281 31.789062 7.5625 32.945312 7.941406 C 33.195312 7.988281 33.414062 8.148438 33.527344 8.378906 L 34.703125 10.730469 C 36.324219 11.570312 37.566406 12.671875 38.40625 14 C 40.777344 13.371094 42.035156 16.609375 39.875 17.761719 C 39.875 17.761719 39.066406 18.167969 39.066406 18.167969 C 39.566406 19.25 39.828125 20.414062 39.839844 21.585938 L 39.867188 21.554688 C 39.902344 21.503906 39.9375 21.453125 39.984375 21.410156 L 42.410156 18.976562 C 42.5625 18.824219 42.769531 18.738281 42.980469 18.738281 L 47.835938 18.738281 C 48.28125 18.738281 48.644531 19.101562 48.644531 19.546875 L 48.644531 25.226562 C 48.652344 25.664062 48.269531 26.046875 47.835938 26.039062 L 43.792969 26.039062 C 43.460938 26.054688 43.203125 25.804688 43 25.578125 L 39.691406 28.894531 L 48.410156 37.632812 C 48.722656 37.949219 48.722656 38.460938 48.410156 38.777344 Z M 35.894531 21.574219 C 35.445312 20.601562 36.835938 19.902344 37.34375 20.847656 C 37.792969 21.820312 36.402344 22.519531 35.894531 21.574219 " fill-opacity="1" fill-rule="nonzero"/></g></svg>